<svg version="1.1" id="Layer_1" xmlns="http://www.w3.org/2000/svg" xmlns:xlink="http://www.w3.org/1999/xlink" x="0px" y="0px"
	 width="100%" viewBox="0 0 400 400" enable-background="new 0 0 400 400" xml:space="preserve">
<path fill="#FEFEFE" opacity="1.000000" stroke="none" 
	d="
M215.000000,401.000000 
	C144.688492,401.000000 74.876923,400.972443 5.065598,401.086212 
	C1.786649,401.091553 0.893765,400.626801 0.897097,397.067871 
	C1.019408,266.442139 1.021777,135.816269 0.890715,5.190547 
	C0.886937,1.424767 1.859976,0.913200 5.306972,0.915831 
	C135.766113,1.015407 266.225342,1.014951 396.684509,0.917787 
	C400.108521,0.915237 401.114868,1.392720 401.111023,5.182041 
	C400.977783,135.807755 400.980896,266.433624 401.101959,397.059357 
	C401.105255,400.600861 400.240295,401.094482 396.942871,401.087952 
	C336.462097,400.967651 275.981018,401.000000 215.000000,401.000000 
z"/>
<path fill="#040404" opacity="1.000000" stroke="none" 
	d="
M166.174561,189.024902 
	C166.419434,182.873093 166.848221,177.217270 166.868805,171.559967 
	C166.929642,154.843414 174.562943,142.035126 187.873840,132.816193 
	C212.421310,115.814964 239.388458,103.667366 267.917480,95.012039 
	C275.686249,92.655113 276.749634,93.387184 278.518982,101.203552 
	C280.244751,108.827454 281.791809,116.505363 283.036346,124.221008 
	C284.401428,132.684219 284.211212,132.713806 276.505585,136.004883 
	C259.527771,143.256149 242.617859,150.672028 225.551849,157.709381 
	C211.583389,163.469482 204.241409,173.560516 205.460846,188.663345 
	C206.102448,196.609390 203.619217,201.098541 196.267700,204.182159 
	C188.645432,207.379379 181.877060,212.468857 174.038284,215.356049 
	C168.287704,217.474106 167.384872,216.920502 166.717636,210.980927 
	C165.915924,203.844177 166.055145,196.681427 166.174561,189.024902 
z"/>
<path fill="#062B56" opacity="1.000000" stroke="none" 
	d="
M283.979126,276.999115 
	C284.169220,294.320374 284.387878,311.141724 284.521698,327.963715 
	C284.550812,331.623108 284.213623,335.283997 284.160614,338.945862 
	C284.115143,342.084534 282.621948,342.590210 279.976074,341.596619 
	C274.191254,339.424347 268.704956,336.640961 263.385651,333.528870 
	C245.016861,322.782013 247.262985,325.117004 247.332169,304.572815 
	C247.407318,282.258209 247.757965,259.941467 245.097244,237.704041 
	C244.243759,230.570923 241.798904,225.519165 234.598541,222.414215 
	C221.735504,216.867416 215.983948,206.506561 216.886093,192.405167 
	C217.183899,187.750366 217.268692,183.083847 218.113327,178.489685 
	C219.028152,173.513672 220.979980,171.992233 225.305344,174.099045 
	C241.749435,182.108688 258.116119,190.377579 272.062103,202.462875 
	C279.416046,208.835663 281.907562,217.695786 282.733124,227.054916 
	C284.184448,243.507339 283.375580,260.022217 283.979126,276.999115 
z"/>
<path fill="#040404" opacity="1.000000" stroke="none" 
	d="
M295.047119,268.990234 
	C295.302094,253.841263 295.549652,239.190186 295.758545,224.538544 
	C295.784607,222.712769 296.072632,220.700729 295.440002,219.088669 
	C292.797913,212.356125 296.097290,208.345551 301.320129,204.984100 
	C306.499603,201.650558 311.714844,198.425598 317.394623,195.948959 
	C320.906311,194.417709 322.476440,195.108231 323.109833,198.989639 
	C324.669067,208.544235 325.359222,218.178116 325.878357,227.814285 
	C327.535797,258.580872 328.444763,289.370728 328.504974,320.187225 
	C328.512085,323.815308 327.485748,325.936493 324.250336,327.633514 
	C317.032776,331.419159 310.096619,335.740936 302.881775,339.532104 
	C295.064819,343.639740 294.767334,343.410431 294.194824,334.409515 
	C293.156799,318.089600 294.336243,301.782379 294.638031,285.470520 
	C294.736633,280.142395 294.896210,274.815430 295.047119,268.990234 
z"/>
<path fill="#052B55" opacity="1.000000" stroke="none" 
	d="
M85.072350,246.953979 
	C106.428192,258.268280 126.568779,271.053253 148.164230,281.155426 
	C148.616898,281.367157 149.071533,281.575623 149.531982,281.769623 
	C153.654053,283.506042 159.153580,284.177979 161.529373,287.259216 
	C164.112823,290.609711 162.182693,296.248230 162.304489,300.885742 
	C162.426941,305.548309 162.173248,310.224060 162.391541,314.879639 
	C162.530136,317.835449 161.383087,318.266876 158.665009,318.368622 
	C150.299225,318.681793 143.046997,315.269531 135.770859,312.015411 
	C111.125938,300.993347 87.227577,288.502991 63.528694,275.575806 
	C55.123188,270.990784 51.441643,264.860382 51.830528,255.537811 
	C52.121666,248.558517 51.657864,241.566498 52.554333,234.581558 
	C53.042160,230.780594 54.134651,230.067825 57.549580,231.992264 
	C66.539116,237.058197 75.669556,241.874069 85.072350,246.953979 
z"/>
<path fill="#E54E2D" opacity="1.000000" stroke="none" 
	d="
M250.147614,90.600166 
	C249.896423,90.751427 249.510330,90.968277 249.297333,91.028778 
	C241.087265,94.515282 233.198990,98.173485 225.132065,102.306862 
	C224.232620,102.735435 223.664185,103.014069 222.801727,103.412445 
	C222.172363,103.420212 221.853683,103.450203 221.497528,103.893082 
	C221.360641,104.292595 221.280441,104.443077 220.958786,104.677902 
	C220.717316,104.762245 220.355515,104.878845 220.193497,104.978195 
	C219.769623,105.286667 219.497742,105.481918 218.967773,105.694427 
	C218.718246,105.723549 218.349930,105.853767 218.190491,105.966621 
	C217.172607,106.655495 216.133774,106.889526 215.013412,107.626640 
	C214.723694,107.735001 214.354828,107.852211 214.192017,107.956833 
	C212.691864,109.277168 211.034683,109.909515 209.084946,110.673416 
	C208.762939,110.751251 208.372955,110.853622 208.195435,110.949203 
	C207.276962,111.817566 206.305130,112.199326 205.047913,112.672028 
	C204.741211,112.726845 204.359467,112.849060 204.188522,112.953674 
	C203.764908,113.281746 203.496979,113.484871 202.959045,113.678802 
	C202.706802,113.693214 202.334351,113.823990 202.172974,113.937607 
	C199.785309,115.155121 197.837372,116.776619 195.128067,117.689865 
	C194.806702,117.799889 194.417282,117.937828 194.247543,118.055565 
	C192.274551,119.482361 190.154266,120.238121 187.998047,121.590599 
	C186.968811,122.051796 186.252579,122.399818 185.283737,122.907806 
	C184.781921,123.273293 184.525589,123.469536 184.038269,123.748825 
	C183.814377,123.841156 183.437637,123.991417 183.274902,124.112457 
	C182.417236,124.587013 181.849777,125.121140 180.934875,125.615173 
	C180.648819,125.662086 180.311203,125.816849 180.167023,125.933868 
	C179.781891,126.274712 179.524002,126.476913 179.012817,126.725777 
	C178.302612,127.059044 177.828766,127.324036 177.181396,127.800079 
	C176.322769,128.783737 175.371964,129.138092 174.314331,129.847168 
	C173.831390,130.227386 173.564056,130.417999 173.178223,130.851990 
	C172.437210,131.555984 171.871368,132.090942 170.974426,132.641510 
	C170.691711,132.713181 170.350906,132.875473 170.205505,132.995819 
	C169.432755,133.575943 168.859177,134.103226 167.950211,134.624023 
	C166.594559,135.318253 165.524979,135.957001 164.238647,136.817642 
	C163.016068,137.840103 161.920853,137.937729 160.368805,137.247772 
	C159.985718,137.040161 159.657898,136.838791 159.475082,136.778946 
	C158.936340,136.712555 158.623077,136.593597 158.187241,136.162094 
	C156.967804,135.291351 155.913589,134.620819 154.567871,133.836044 
	C153.927277,133.712311 153.622070,133.588760 153.181458,133.180786 
	C153.008438,132.994217 152.709991,132.773376 152.535477,132.710098 
	C150.479736,132.021652 148.985641,130.768677 147.154495,129.444733 
	C146.874817,129.280746 146.533218,129.033066 146.335693,128.958984 
	C145.851913,128.749939 145.588608,128.579544 145.151138,128.244476 
	C144.954025,128.115265 144.643845,127.875084 144.463318,127.798370 
	C143.924561,127.716507 143.619247,127.583527 143.222229,127.119873 
	C143.084763,126.899910 142.995590,126.986252 143.041656,126.946976 
	C142.800003,126.772423 142.555710,126.581543 142.150452,126.221512 
	C141.536789,125.749908 141.127518,125.391876 140.470825,124.916016 
	C139.887497,124.724655 139.596985,124.567314 139.235779,124.101242 
	C139.119797,123.876160 139.001831,124.000305 139.058929,123.936821 
	C138.800171,123.773911 138.546921,123.588844 138.188202,123.148972 
	C137.218292,121.887772 136.290390,120.812363 137.759430,119.183716 
	C138.569611,118.438202 139.130890,117.904648 140.025620,117.365067 
	C140.307312,117.297112 140.655869,117.136650 140.801270,117.011482 
	C141.567459,116.424202 142.137009,115.898582 143.034576,115.363647 
	C144.008591,114.870560 144.700256,114.443398 145.641113,113.840393 
	C146.104630,113.603928 146.318954,113.543304 146.760040,113.237358 
	C146.986801,112.992035 146.999390,113.000641 146.996552,112.994316 
	C148.627670,111.407593 150.867401,110.820663 152.983459,109.397369 
	C153.292480,109.270622 153.651413,109.148849 153.810501,109.045868 
	C155.657715,107.447777 157.845810,106.792557 159.991516,105.423965 
	C160.302689,105.304520 160.669510,105.177193 160.827911,105.064934 
	C161.221329,104.741074 161.461838,104.535904 161.935791,104.271484 
	C162.163742,104.205788 162.064316,103.997833 162.120148,104.100922 
	C163.380402,102.815567 165.336075,102.688072 166.981415,101.396866 
	C167.288635,101.269684 167.652679,101.143791 167.815247,101.040482 
	C168.223114,100.717926 168.483902,100.518936 168.999939,100.284119 
	C169.239716,100.228020 169.620468,100.110397 169.790802,100.007034 
	C170.220901,99.723335 170.476395,99.537132 170.938477,99.236534 
	C171.149353,99.127998 171.546249,99.003716 171.725311,98.897980 
	C172.583542,98.416664 173.148117,97.883018 174.061096,97.391434 
	C175.107071,97.036606 175.867279,96.726082 176.890259,96.254608 
	C177.781052,95.346886 178.734955,95.151459 179.838791,94.524864 
	C180.147003,94.361458 180.510712,94.091316 180.721283,94.007812 
	C181.105789,93.796242 181.279709,93.668167 181.752258,93.414444 
	C182.050888,93.288803 182.460434,93.048241 182.685547,92.972595 
	C183.453857,92.504395 183.971375,92.074432 184.873505,91.621185 
	C185.326309,91.392113 185.473557,91.301567 185.871063,91.143097 
	C186.758606,90.258461 187.828903,90.169220 188.869568,89.457031 
	C189.129196,89.320107 189.503815,89.071434 189.719330,89.007378 
	C190.109222,88.807663 190.283600,88.671997 190.771667,88.429443 
	C191.614304,88.022301 192.143280,87.722038 192.936127,87.269844 
	C194.498474,85.987976 196.608429,86.350449 197.887512,84.512154 
	C198.145950,84.314697 198.510452,84.072304 198.719040,84.006027 
	C199.109436,83.801880 199.291260,83.664001 199.794861,83.409409 
	C200.116623,83.292694 200.207870,83.186020 200.278015,83.183655 
	C200.390656,82.964661 200.433136,82.748032 200.789001,82.638428 
	C201.278992,82.619049 201.455612,82.492645 201.937286,82.251961 
	C202.316833,81.935806 202.391312,81.733932 202.786285,81.570389 
	C203.454254,81.393921 203.801743,81.179146 204.435684,80.852783 
	C206.095459,80.189713 207.012375,78.889343 208.765106,78.377991 
	C209.382767,78.100410 209.696808,77.907021 210.265121,77.603226 
	C211.180008,77.671120 211.476578,77.282379 211.946045,76.709526 
	C212.356415,76.554993 212.500427,76.438919 212.888199,76.190384 
	C213.244766,75.881790 213.357559,75.705658 213.778687,75.471596 
	C215.246841,74.730339 216.406647,74.047005 217.880280,73.245468 
	C218.754135,72.207932 220.110062,72.641106 220.905151,71.533813 
	C221.162704,71.384094 221.533890,71.109344 221.752716,71.035652 
	C222.134232,70.819542 222.296921,70.677132 222.769440,70.438881 
	C223.595322,70.022522 224.111374,69.701996 224.894714,69.236382 
	C228.315384,67.381897 231.462418,65.622124 234.528946,63.802647 
	C238.576691,61.400993 241.934723,62.067886 245.735260,64.716003 
	C246.036087,64.963509 246.497330,65.126770 246.699127,65.265076 
	C247.111206,65.448189 247.321503,65.492996 247.704071,65.810432 
	C247.876373,66.083069 247.941696,66.025757 247.934143,66.068542 
	C248.539902,66.551689 249.080933,67.083672 249.978073,67.579575 
	C250.253128,67.646240 250.136292,67.822594 250.217270,67.754547 
	C250.559647,68.943901 251.677521,68.329231 252.551697,68.909149 
	C252.729599,69.182236 252.836426,69.186638 252.856964,69.235992 
	C253.088547,69.363358 253.299576,69.441376 253.708740,69.792557 
	C253.906906,70.065720 253.976654,70.006729 253.956696,70.047806 
	C255.091400,70.975136 256.244812,71.863113 257.762146,72.776657 
	C258.179443,73.019020 258.338440,73.085854 258.693146,73.321869 
	C259.100647,73.504906 259.312439,73.518768 259.624634,73.834755 
	C259.725006,74.136871 259.831146,74.145531 259.845490,74.196808 
	C260.456268,74.612427 261.008972,75.036011 261.817383,75.699982 
	C262.905182,76.501366 263.716492,77.090622 264.717529,77.912102 
	C267.475677,80.677139 267.871277,82.663269 263.849670,84.224480 
	C260.385620,85.569252 257.247009,87.715302 253.325684,88.880966 
	C253.086777,89.187447 252.786316,89.381836 252.614670,89.432343 
	C251.556488,89.370819 251.050949,90.064995 250.147614,90.600166 
z"/>
<path fill="#072C56" opacity="1.000000" stroke="none" 
	d="
M117.453255,166.332260 
	C118.318314,156.738052 119.253876,147.629150 122.611153,138.984421 
	C125.182556,132.363266 127.738884,131.144974 133.998520,134.140778 
	C139.999542,137.012817 145.788483,140.317825 151.121979,144.347763 
	C153.993820,146.517700 155.792328,149.331345 154.881561,152.965210 
	C151.724915,165.560074 152.298325,178.404572 151.980682,191.199600 
	C151.881683,195.186752 151.390457,199.162796 151.216141,203.149918 
	C151.080124,206.260849 149.749649,206.360794 147.435120,205.009796 
	C138.104492,199.563507 128.769516,194.123413 119.372192,188.793747 
	C117.642097,187.812546 117.248543,186.578812 117.280449,184.775009 
	C117.386421,178.783554 117.374916,172.790024 117.453255,166.332260 
z"/>
<path fill="#060606" opacity="1.000000" stroke="none" 
	d="
M216.605133,267.686035 
	C220.900391,265.127808 224.877182,262.751190 229.874649,259.764557 
	C229.536591,272.657227 231.729813,284.609039 229.638214,296.610962 
	C229.130432,299.524780 227.279449,301.761414 224.789368,303.308014 
	C211.032608,311.852448 196.526855,318.130524 179.940750,318.333740 
	C177.206711,318.367218 176.095612,317.863708 176.167358,314.854279 
	C176.361801,306.698883 176.366455,298.532806 176.168304,290.377747 
	C176.102921,287.686615 177.176636,286.606537 179.485504,285.702820 
	C192.213486,280.721008 204.521454,274.848053 216.605133,267.686035 
z"/>
<path fill="#E44E2E" opacity="1.000000" stroke="none" 
	d="
M255.618668,153.643372 
	C257.837769,152.435547 259.907867,151.641647 261.629272,150.374161 
	C269.668365,144.454910 276.900391,146.429352 284.313751,151.876877 
	C293.440918,158.583755 302.639648,165.165588 310.395416,173.491013 
	C315.189087,178.636780 315.032990,179.770721 309.379517,183.929031 
	C303.741455,188.076019 297.705719,191.586960 291.603485,195.000519 
	C288.814575,196.560623 286.206665,196.741043 283.778839,194.577164 
	C271.530304,183.660355 257.496185,175.365189 243.475891,167.052368 
	C240.076538,165.036804 239.663147,163.255844 243.385284,161.114914 
	C247.419998,158.794205 251.339355,156.272934 255.618668,153.643372 
z"/>
<path fill="#D7634A" opacity="1.000000" stroke="none" 
	d="
M70.553818,206.570648 
	C75.823334,203.663345 80.739792,200.859940 85.764839,198.266983 
	C91.182030,195.471680 96.469917,195.740784 101.942162,198.683868 
	C121.595604,209.253922 142.193695,217.811920 162.527649,226.943115 
	C169.410339,230.033875 175.921463,229.569855 181.503189,225.652252 
	C191.488663,218.643814 200.465378,219.773224 209.889587,226.399261 
	C215.457047,230.313675 221.610031,233.386993 227.266251,237.186127 
	C231.704712,240.167282 231.675919,241.618515 227.390945,244.419617 
	C213.574158,253.451767 199.273880,261.683258 183.828705,267.580780 
	C174.097610,271.296417 164.096054,271.712616 154.190887,267.366364 
	C123.375275,253.844971 93.478333,238.554718 64.630943,221.220978 
	C63.776012,220.707275 62.986492,220.084381 62.129730,219.574097 
	C58.691002,217.526016 58.073345,215.372025 61.725937,212.864075 
	C64.604935,210.887299 67.410431,208.803467 70.553818,206.570648 
z"/>
<path fill="#DC8C78" opacity="1.000000" stroke="none" 
	d="
M225.158035,102.512863 
	C229.021118,98.444664 234.725479,97.070435 239.606049,94.217796 
	C242.239944,92.678322 245.396378,92.032852 248.700714,91.036667 
	C241.568802,95.615746 233.500916,99.008156 225.158035,102.512863 
z"/>
<path fill="#DC8C78" opacity="1.000000" stroke="none" 
	d="
M245.943588,64.629936 
	C240.046021,61.584122 234.905029,63.815315 229.879608,67.299339 
	C228.699799,68.117271 227.226471,68.511848 225.525085,69.096237 
	C228.424103,65.343102 232.938599,63.551048 237.322800,61.751461 
	C240.526657,60.436367 243.390457,62.136284 245.943588,64.629936 
z"/>
<path fill="#DC8C78" opacity="1.000000" stroke="none" 
	d="
M253.473053,89.192108 
	C255.960724,85.975975 260.244171,85.298737 263.849579,83.462479 
	C266.665161,82.028458 266.008362,80.743988 264.959839,78.507103 
	C267.080750,78.538338 268.812378,79.797157 268.739258,81.973000 
	C268.674042,83.913727 266.378937,84.086960 264.901123,84.632240 
	C261.158691,86.013123 257.848511,88.430649 253.473053,89.192108 
z"/>
<path fill="#F8C3B2" opacity="1.000000" stroke="none" 
	d="
M195.177094,117.875183 
	C196.564468,115.837852 198.869690,114.810471 201.655762,114.023895 
	C200.551773,116.502960 198.309265,117.657135 195.177094,117.875183 
z"/>
<path fill="#F8C3B2" opacity="1.000000" stroke="none" 
	d="
M152.924713,109.210159 
	C152.055527,111.455467 149.673279,111.927605 147.346619,112.999313 
	C147.827942,110.229927 150.408310,110.002708 152.924713,109.210159 
z"/>
<path fill="#F8C3B2" opacity="1.000000" stroke="none" 
	d="
M188.050079,121.776733 
	C188.966736,119.532333 191.379700,119.159752 193.726944,118.149025 
	C193.071793,120.756584 190.572647,121.040031 188.050079,121.776733 
z"/>
<path fill="#F8C3B2" opacity="1.000000" stroke="none" 
	d="
M159.937729,105.232048 
	C159.028961,107.451370 156.635864,107.875526 154.321472,108.952606 
	C154.856339,106.228928 157.421204,106.000298 159.937729,105.232048 
z"/>
<path fill="#F8C3B2" opacity="1.000000" stroke="none" 
	d="
M146.946640,129.613159 
	C149.084457,129.311081 150.440262,130.943253 152.217880,132.349670 
	C149.963089,132.966766 148.297577,131.838272 146.946640,129.613159 
z"/>
<path fill="#F8C3B2" opacity="1.000000" stroke="none" 
	d="
M209.134125,110.830872 
	C209.876480,109.146683 211.719009,108.761093 213.686584,108.036552 
	C213.425812,110.447487 211.489365,110.716805 209.134125,110.830872 
z"/>
<path fill="#F8C3B2" opacity="1.000000" stroke="none" 
	d="
M166.931076,101.210739 
	C166.370895,103.083847 164.563858,103.552032 162.522430,104.196922 
	C162.829254,102.015884 164.800842,101.727119 166.931076,101.210739 
z"/>
<path fill="#DC8C78" opacity="1.000000" stroke="none" 
	d="
M197.814697,84.324417 
	C197.587875,86.539482 195.824860,86.958504 193.553009,87.130920 
	C194.176208,85.495071 196.047821,85.250046 197.814697,84.324417 
z"/>
<path fill="#DC8C78" opacity="1.000000" stroke="none" 
	d="
M208.728668,78.239044 
	C208.203064,79.666687 207.004837,80.562332 205.055389,80.799713 
	C205.408600,79.120750 206.650940,78.297394 208.728668,78.239044 
z"/>
<path fill="#F8C3B2" opacity="1.000000" stroke="none" 
	d="
M160.121582,137.345062 
	C161.060791,137.031586 162.135849,137.023026 163.616409,137.026978 
	C163.187958,139.838516 161.776611,139.076645 160.121582,137.345062 
z"/>
<path fill="#DC8C78" opacity="1.000000" stroke="none" 
	d="
M257.891235,72.652008 
	C256.306030,72.921570 255.028198,72.103516 253.992157,70.419159 
	C255.675125,70.060043 256.649292,71.323013 257.891235,72.652008 
z"/>
<path fill="#DC8C78" opacity="1.000000" stroke="none" 
	d="
M179.832779,94.297836 
	C179.906876,95.672386 178.902313,95.960762 177.475967,96.105278 
	C177.491882,94.901779 178.446472,94.493263 179.832779,94.297836 
z"/>
<path fill="#F8C3B2" opacity="1.000000" stroke="none" 
	d="
M174.474625,130.085541 
	C174.338821,128.816696 175.406509,128.489639 176.686707,128.027496 
	C176.993668,129.460327 176.008270,129.882339 174.474625,130.085541 
z"/>
<path fill="#DC8C78" opacity="1.000000" stroke="none" 
	d="
M188.815750,89.269974 
	C188.873352,90.613937 187.897339,90.967690 186.446503,91.100662 
	C186.519257,89.948914 187.450531,89.507065 188.815750,89.269974 
z"/>
<path fill="#F8C3B2" opacity="1.000000" stroke="none" 
	d="
M205.100159,112.812668 
	C205.618286,112.142822 206.495377,111.558800 207.695190,111.009781 
	C207.859787,112.621765 206.801727,112.956535 205.100159,112.812668 
z"/>
<path fill="#F8C3B2" opacity="1.000000" stroke="none" 
	d="
M215.056854,107.811859 
	C215.168549,106.497917 216.219864,106.188583 217.694748,106.046112 
	C217.535172,107.243774 216.606766,107.776711 215.056854,107.811859 
z"/>
<path fill="#F8C3B2" opacity="1.000000" stroke="none" 
	d="
M167.996948,134.752106 
	C168.256287,134.148972 168.848419,133.618454 169.750336,133.102066 
	C169.930511,134.138580 169.395508,134.750427 167.996948,134.752106 
z"/>
<path fill="#F8C3B2" opacity="1.000000" stroke="none" 
	d="
M171.029572,132.769501 
	C171.261505,132.159912 171.831299,131.606644 172.712646,131.049438 
	C172.957153,132.090515 172.447372,132.723480 171.029572,132.769501 
z"/>
<path fill="#DC8C78" opacity="1.000000" stroke="none" 
	d="
M262.022339,75.607849 
	C261.146240,76.060059 260.462677,75.677605 259.926300,74.557068 
	C260.797882,74.122368 261.433838,74.595169 262.022339,75.607849 
z"/>
<path fill="#F8C3B2" opacity="1.000000" stroke="none" 
	d="
M180.976120,125.740463 
	C180.966263,124.798035 181.642807,124.374985 182.801422,124.197929 
	C182.931381,125.243568 182.343872,125.789589 180.976120,125.740463 
z"/>
<path fill="#F8C3B2" opacity="1.000000" stroke="none" 
	d="
M139.973663,117.235931 
	C139.732101,117.836349 139.156876,118.375580 138.273239,118.917252 
	C138.054443,117.888000 138.580551,117.275345 139.973663,117.235931 
z"/>
<path fill="#DC8C78" opacity="1.000000" stroke="none" 
	d="
M250.146606,67.358971 
	C249.265442,67.981316 248.551666,67.639954 247.991898,66.434166 
	C248.860535,65.926506 249.460236,66.477264 250.146606,67.358971 
z"/>
<path fill="#DC8C78" opacity="1.000000" stroke="none" 
	d="
M220.856659,71.371597 
	C220.914932,72.668213 219.936722,72.990730 218.514923,73.139458 
	C218.608597,72.043427 219.664017,71.813744 220.856659,71.371597 
z"/>
<path fill="#F8C3B2" opacity="1.000000" stroke="none" 
	d="
M142.983612,115.231361 
	C142.733017,115.830017 142.149124,116.362320 141.255951,116.890472 
	C141.059586,115.862244 141.581558,115.243057 142.983612,115.231361 
z"/>
<path fill="#F8C3B2" opacity="1.000000" stroke="none" 
	d="
M174.021179,97.265160 
	C174.018311,98.190399 173.376175,98.660927 172.213898,98.836670 
	C172.087494,97.795158 172.652435,97.223091 174.021179,97.265160 
z"/>
<path fill="#DC8C78" opacity="1.000000" stroke="none" 
	d="
M250.199295,90.807518 
	C250.101654,89.710258 250.714401,89.178131 252.119278,89.356964 
	C251.796066,89.943100 251.149124,90.403358 250.199295,90.807518 
z"/>
<path fill="#DC8C78" opacity="1.000000" stroke="none" 
	d="
M184.877090,91.426315 
	C184.954926,92.352859 184.371414,92.823196 183.209930,92.940186 
	C183.085831,91.974106 183.693848,91.523102 184.877090,91.426315 
z"/>
<path fill="#DC8C78" opacity="1.000000" stroke="none" 
	d="
M252.618286,68.895691 
	C251.961243,68.892334 251.192871,68.602440 250.361389,67.999519 
	C251.034485,67.994049 251.770737,68.301598 252.618286,68.895691 
z"/>
<path fill="#DC8C78" opacity="1.000000" stroke="none" 
	d="
M211.957245,76.595917 
	C211.821701,77.007645 211.431000,77.344231 210.779846,77.586815 
	C210.913635,77.168808 211.307846,76.844795 211.957245,76.595917 
z"/>
<path fill="#F8C3B2" opacity="1.000000" stroke="none" 
	d="
M170.882965,99.124184 
	C170.931503,99.393585 170.713669,99.659164 170.228485,99.914215 
	C170.179611,99.642570 170.398087,99.381470 170.882965,99.124184 
z"/>
<path fill="#F8C3B2" opacity="1.000000" stroke="none" 
	d="
M145.060226,128.357269 
	C145.275223,128.212952 145.596436,128.310654 146.027893,128.646606 
	C145.814240,128.789688 145.490341,128.694489 145.060226,128.357269 
z"/>
<path fill="#DC8C78" opacity="1.000000" stroke="none" 
	d="
M181.803101,93.244202 
	C181.966827,93.633842 181.753540,93.853386 181.171463,93.935867 
	C181.139679,93.682739 181.347504,93.441170 181.803101,93.244202 
z"/>
<path fill="#DC8C78" opacity="1.000000" stroke="none" 
	d="
M222.837936,70.303017 
	C222.993301,70.681984 222.781235,70.895966 222.207306,70.973480 
	C222.040253,70.604019 222.248596,70.371025 222.837936,70.303017 
z"/>
<path fill="#F8C3B2" opacity="1.000000" stroke="none" 
	d="
M153.125107,133.247406 
	C153.343765,133.080338 153.679108,133.166473 154.145386,133.487183 
	C153.931488,133.648056 153.586639,133.574326 153.125107,133.247406 
z"/>
<path fill="#DC8C78" opacity="1.000000" stroke="none" 
	d="
M200.921890,82.662888 
	C201.027145,82.960953 200.880798,83.103401 200.505737,83.177048 
	C200.290543,82.857155 200.421616,82.656837 200.921890,82.662888 
z"/>
<path fill="#F8C3B2" opacity="1.000000" stroke="none" 
	d="
M158.139053,136.217957 
	C158.359100,136.055038 158.696198,136.148209 159.162781,136.480240 
	C158.946884,136.637421 158.601486,136.555725 158.139053,136.217957 
z"/>
<path fill="#DC8C78" opacity="1.000000" stroke="none" 
	d="
M213.856049,75.370155 
	C214.020966,75.715736 213.842789,75.920029 213.342239,76.042244 
	C213.115784,75.692268 213.280151,75.448509 213.856049,75.370155 
z"/>
<path fill="#DC8C78" opacity="1.000000" stroke="none" 
	d="
M253.839447,69.825317 
	C253.564590,70.098557 253.284241,69.982162 252.971680,69.500938 
	C253.244614,69.179420 253.542786,69.279274 253.839447,69.825317 
z"/>
<path fill="#DC8C78" opacity="1.000000" stroke="none" 
	d="
M190.839127,88.282349 
	C190.993073,88.671608 190.771515,88.888901 190.177765,88.958878 
	C190.023941,88.587303 190.243301,88.353577 190.839127,88.282349 
z"/>
<path fill="#DC8C78" opacity="1.000000" stroke="none" 
	d="
M247.815186,65.852890 
	C247.558762,66.136505 247.293304,66.042595 246.990448,65.602348 
	C247.244476,65.246246 247.528839,65.319359 247.815186,65.852890 
z"/>
<path fill="#DC8C78" opacity="1.000000" stroke="none" 
	d="
M259.705658,73.908653 
	C259.446198,74.154732 259.216919,74.056786 258.962982,73.667038 
	C259.216583,73.293663 259.482391,73.356796 259.705658,73.908653 
z"/>
<path fill="#F8C3B2" opacity="1.000000" stroke="none" 
	d="
M218.991821,105.765747 
	C218.976379,105.491051 219.234512,105.258560 219.762054,105.051804 
	C219.776123,105.321007 219.520767,105.564484 218.991821,105.765747 
z"/>
<path fill="#F8C3B2" opacity="1.000000" stroke="none" 
	d="
M143.178894,127.161560 
	C143.406509,127.015045 143.728256,127.130188 144.166382,127.483490 
	C143.946198,127.622177 143.609604,127.522697 143.178894,127.161560 
z"/>
<path fill="#F8C3B2" opacity="1.000000" stroke="none" 
	d="
M179.048737,126.810280 
	C179.013687,126.546791 179.250916,126.299522 179.755493,126.051575 
	C179.788910,126.309433 179.554962,126.567970 179.048737,126.810280 
z"/>
<path fill="#F8C3B2" opacity="1.000000" stroke="none" 
	d="
M142.041824,126.351028 
	C142.262314,126.213120 142.578568,126.318298 142.991287,126.665604 
	C142.771027,126.803185 142.454315,126.698654 142.041824,126.351028 
z"/>
<path fill="#F8C3B2" opacity="1.000000" stroke="none" 
	d="
M168.968719,100.205399 
	C168.998093,100.474922 168.756485,100.721832 168.246338,100.952957 
	C168.217773,100.685707 168.457733,100.434235 168.968719,100.205399 
z"/>
<path fill="#F8C3B2" opacity="1.000000" stroke="none" 
	d="
M139.186874,124.143761 
	C139.428757,124.017601 139.737701,124.159042 140.135025,124.549332 
	C139.900238,124.669243 139.577103,124.540306 139.186874,124.143761 
z"/>
<path fill="#F8C3B2" opacity="1.000000" stroke="none" 
	d="
M184.084076,123.846176 
	C184.041580,123.584953 184.268768,123.328743 184.763550,123.070145 
	C184.805344,123.328911 184.579559,123.590057 184.084076,123.846176 
z"/>
<path fill="#F8C3B2" opacity="1.000000" stroke="none" 
	d="
M138.096588,123.235077 
	C138.329514,123.111946 138.638901,123.244072 139.032150,123.624771 
	C138.801697,123.745674 138.487366,123.618004 138.096588,123.235077 
z"/>
<path fill="#DC8C78" opacity="1.000000" stroke="none" 
	d="
M221.239929,104.176102 
	C221.294067,103.786285 221.611969,103.560799 222.218781,103.433746 
	C222.507690,103.532188 222.382523,103.915565 222.247452,104.065277 
	C221.909485,104.256813 221.706573,104.298622 221.239929,104.176102 
z"/>
<path fill="#DC8C78" opacity="1.000000" stroke="none" 
	d="
M199.861603,83.258698 
	C200.005310,83.638573 199.774704,83.860504 199.176208,83.949127 
	C199.153961,83.701408 199.380280,83.463051 199.861603,83.258698 
z"/>
<path fill="#F8C3B2" opacity="1.000000" stroke="none" 
	d="
M161.900360,104.189545 
	C161.944275,104.451408 161.724808,104.697021 161.245819,104.947655 
	C161.203201,104.692886 161.420074,104.433090 161.900360,104.189545 
z"/>
<path fill="#F8C3B2" opacity="1.000000" stroke="none" 
	d="
M202.980042,113.744530 
	C202.965607,113.466125 203.224396,113.239037 203.750397,113.035126 
	C203.762817,113.304146 203.508057,113.549995 202.980042,113.744530 
z"/>
<path fill="#F8C3B2" opacity="1.000000" stroke="none" 
	d="
M146.749023,112.993149 
	C146.787064,113.242210 146.587341,113.492393 146.138977,113.703560 
	C145.970139,113.323341 146.177124,113.099915 146.749023,112.993149 
z"/>
<path fill="#F8C3B2" opacity="1.000000" stroke="none" 
	d="
M220.868774,104.184669 
	C221.166641,104.038551 221.357117,104.065331 221.829987,104.153557 
	C221.826813,104.423378 221.541245,104.631760 220.986496,104.801193 
	C220.717316,104.762245 220.761383,104.357567 220.868774,104.184669 
z"/>
<path fill="#DC8C78" opacity="1.000000" stroke="none" 
	d="
M202.899200,81.535995 
	C203.032715,81.867767 202.867874,82.039970 202.427307,82.131493 
	C202.201340,81.785553 202.351089,81.560760 202.899200,81.535995 
z"/>
<path fill="#E84A27" opacity="1.000000" stroke="none" 
	d="
M103.328003,201.632080 
	C109.699364,205.831482 116.443176,208.837418 122.870140,211.814758 
	C131.591904,215.855179 140.491196,219.842133 149.546631,223.287491 
	C150.782928,223.757858 152.453461,223.928635 153.151031,224.833313 
	C156.991867,229.814529 163.182358,228.976685 168.163376,230.486389 
	C173.221268,232.019394 178.940186,229.774628 183.692978,226.797974 
	C193.964508,220.364929 195.888397,220.391129 205.692780,228.029068 
	C207.555573,229.480255 209.840424,228.766357 211.822113,229.806213 
	C216.380737,232.198273 220.517944,235.174927 224.753448,238.053360 
	C228.036224,240.284332 227.126083,242.330215 224.653778,243.740341 
	C218.963165,246.986038 213.993835,251.329773 207.434570,253.354111 
	C203.613571,254.533325 200.138458,257.504242 196.505844,259.667633 
	C181.111572,268.835632 165.601242,271.605621 148.864990,262.814026 
	C143.485779,259.988312 138.251099,256.898499 132.934097,254.191620 
	C127.688614,251.521164 121.570969,250.095749 116.194916,247.193787 
	C111.276367,244.538742 106.018234,242.479965 101.886208,238.488327 
	C99.607529,236.287064 96.049850,237.092957 93.589897,235.597900 
	C86.601288,231.350479 78.829468,228.428101 72.483650,223.091522 
	C70.556458,221.470856 68.192947,220.622116 65.827202,219.768448 
	C64.207390,219.183929 63.049988,217.922592 63.026886,216.005768 
	C63.005295,214.213913 64.330421,213.740753 65.627335,212.846283 
	C70.249161,209.658722 74.554298,206.013733 79.674217,203.571075 
	C83.084908,201.943863 86.412964,200.132828 89.873909,198.624054 
	C94.858032,196.451233 98.844574,199.454010 103.328003,201.632080 
z"/>
</svg>